# xmcd CD database file
#
# Track frame offsets:
#       150
#       12377
#       35714
#       55940
#       85053
#       96685
#       105605
#       137066
#       165906
#       174693
#       193529
#       205544
#       219124
#       228107
#       242899
#       259268
#
# Disc length: 3602 seconds
#
# Revision: 3
# Processed by: cddbd v1.5.2PL0 Copyright (c) Steve Scherf et al.
# Submitted via: CDDBEditor PBVER-PBREV
#
DISCID=d60e1010
DTITLE=Stradivaria - Stabat Mater - Abos - Tartini - Gasparini
DYEAR=2002
DGENRE=Sacred Music
TTITLE0=Girolamo Abos (1715-1760) - Stabat Mater (1750) - Stabat Mater
TTITLE1=Girolamo Abos (1715-1760) - Stabat Mater (1750) - Cujus animam
TTITLE2=Girolamo Abos (1715-1760) - Stabat Mater (1750) - Vidit suum
TTITLE3=Girolamo Abos (1715-1760) - Stabat Mater (1750) - Juxta crucem
TTITLE4=Girolamo Abos (1715-1760) - Stabat Mater (1750) - Quando corpus
TTITLE5=Girolamo Abos (1715-1760) - Stabat Mater (1750) - Amen
TTITLE6=Giuseppe Tartini (1692-1770) - Stabat Mater (1769)
TTITLE7=Quirino Gasparini (1721-1778) - Stabat Mater (1770) - Stabat Mater
TTITLE8=Quirino Gasparini (1721-1778) - Stabat Mater (1770) - Pro peccatis
TTITLE9=Quirino Gasparini (1721-1778) - Stabat Mater (1770) - Vidit suum
TTITLE10=Quirino Gasparini (1721-1778) - Stabat Mater (1770) - Sancta Mater
TTITLE11=Quirino Gasparini (1721-1778) - Stabat Mater (1770) - Fac me
TTITLE12=Quirino Gasparini (1721-1778) - Stabat Mater (1770) - Fac ut
TTITLE13=Quirino Gasparini (1721-1778) - Stabat Mater (1770) - Inflammatus
TTITLE14=Quirino Gasparini (1721-1778) - Stabat Mater (1770) - Quando corpus
TTITLE15=Quirino Gasparini (1721-1778) - Stabat Mater (1770) - Amen
EXTD=
EXTT0=
EXTT1=
EXTT2=
EXTT3=
EXTT4=
EXTT5=
EXTT6=
EXTT7=
EXTT8=
EXTT9=
EXTT10=
EXTT11=
EXTT12=
EXTT13=
EXTT14=
EXTT15=
PLAYORDER=
